<?xml version="1.0" encoding="UTF-8" standalone="no" ?>
<!DOCTYPE svg PUBLIC "-//W3C//DTD SVG 1.1//EN" "http://www.w3.org/Graphics/SVG/1.1/DTD/svg11.dtd">
<svg xmlns="http://www.w3.org/2000/svg" xmlns:xlink="http://www.w3.org/1999/xlink" version="1.1" width="31" height="42" viewBox="0 0 31 42" xml:space="preserve">
<desc>Created with Fabric.js 3.6.6</desc>
<defs>
</defs>
<g transform="matrix(-1.05 0 0 1.01 16.02 20.83)"  >
<path style="stroke: rgb(255,255,255); stroke-width: 1; stroke-dasharray: none; stroke-linecap: butt; stroke-dashoffset: 0; stroke-linejoin: miter; stroke-miterlimit: 4; fill: rgb(255,79,83); fill-rule: nonzero; opacity: 1;"  transform=" translate(-262.46, -196.26)" d="M 262.461 176.262 C 254.761 176.262 248.461 182.562 248.461 190.262 C 248.461 200.762 262.461 216.262 262.461 216.262 C 262.461 216.262 276.461 200.762 276.461 190.262 C 276.461 182.562 270.161 176.262 262.461 176.262 Z" stroke-linecap="round" />
</g>
<g transform="matrix(1 0 0 1 0.5 151.78)"  >
<path style="stroke: rgb(255,244,244); stroke-width: 1; stroke-dasharray: none; stroke-linecap: round; stroke-dashoffset: 0; stroke-linejoin: round; stroke-miterlimit: 10; fill: none; fill-rule: nonzero; opacity: 1;"  transform=" translate(-292, -299)" d="M 291.999 299 L 292.001 299" stroke-linecap="round" />
</g>
<g transform="matrix(1 0 0 1 315.5 181.78)"  >
<path style="stroke: rgb(255,244,244); stroke-width: 1; stroke-dasharray: none; stroke-linecap: round; stroke-dashoffset: 0; stroke-linejoin: round; stroke-miterlimit: 10; fill: none; fill-rule: nonzero; opacity: 1;"  transform=" translate(-607, -329)" d="M 606.999 329 L 607.001 329" stroke-linecap="round" />
</g>
<g transform="matrix(0.02 0 0 0.02 15.46 15.25)"  >
<path style="stroke: none; stroke-width: 1; stroke-dasharray: none; stroke-linecap: butt; stroke-dashoffset: 0; stroke-linejoin: miter; stroke-miterlimit: 4; fill: rgb(255,255,255); fill-rule: nonzero; opacity: 1;"  transform=" translate(-309.79, -249.34)" d="M 609.722 334.588 c 0 0 0 -194.301 0 -215 c 0 -21.7 -13.9 -40.9 -34.5 -47.7 c -57.601 -18.9 -172.101 -56 -224.8 -69 c -14.101 -3.5 -28.801 -3.8 -43.1 -1 l -125.899 24.5 c -23.601 4.6 -40.601 25.2 -40.601 49.2 c -0.1 37.1 -0.4 104.1 -0.6 145.9 c -0.1 10.7 -16 11 -16.5 0.4 c -0.7 -14.4 -0.3 -31.7 -1.7 -49.101 c -5.2 -65 -100.4 -60.7 -105.9 2.5 c -7.3 83.9 -19.1 203.601 37.8 261 l 56.6 62.4 h 431.799 C 542.321 498.688 609.722 364.987 609.722 334.588 z" stroke-linecap="round" />
</g>
<g transform="matrix(0.02 0 0 0.02 15.79 21.81)"  >
<path style="stroke: none; stroke-width: 1; stroke-dasharray: none; stroke-linecap: butt; stroke-dashoffset: 0; stroke-linejoin: miter; stroke-miterlimit: 4; fill: rgb(255,255,255); fill-rule: nonzero; opacity: 1;"  transform=" translate(-326.72, -577.44)" d="M 131.722 619.588 h 390 c 11 0 20 -9 20 -20 v -64.301 h -430 v 64.301 C 111.722 610.688 120.722 619.588 131.722 619.588 z" stroke-linecap="round" />
</g>
</svg>