<svg width="31" height="42" tabindex="0"><path d="M15.6 1c-7.7 0-14 6.3-14 14 0 10.5 14 26 14 26s14-15.5 14-26c0-7.7-6.3-14-14-14z" fill="#7F7EFF" stroke="#fff"/><path fill="#fff" d="M18.3 14.3c1.328 0 2.392-1.072 2.392-2.4S19.628 9.5 18.3 9.5c-1.328 0-2.4 1.072-2.4 2.4s1.072 2.4 2.4 2.4zm-6.4 0c1.328 0 2.392-1.072 2.392-2.4S13.228 9.5 11.9 9.5c-1.328 0-2.4 1.072-2.4 2.4s1.072 2.4 2.4 2.4zm0 1.6c-1.864 0-5.6.936-5.6 2.8v2h11.2v-2c0-1.864-3.736-2.8-5.6-2.8zm6.4 0c-.232 0-.496.016-.776.04.928.672 1.576 1.576 1.576 2.76v2h4.8v-2c0-1.864-3.736-2.8-5.6-2.8z"/></svg>
