<svg width="31" height="42" viewBox="0 0 31 42" xmlns:xlink="http://www.w3.org/1999/xlink" tabindex="0">
  <path d="M15.6,1c-7.7,0-14,6.3-14,14c0,10.5,14,26,14,26s14-15.5,14-26C29.6,7.3,23.3,1,15.6,1z" fill="#0075F2" stroke="white" stroke-width="1"/>
  <path x="20" transform="translate(3, 3) scale(0.8)" fill="white" d="M15.3 14.895A11.838 11.838 0 0 0 7.2 11.7v9.9c3.132 0 5.976 1.215 8.1 3.195a11.88 11.88 0 0 1 8.1-3.195v-9.9a11.838 11.838 0 0 0-8.1 3.195zm0-3.195c1.494 0 2.7-1.206 2.7-2.7s-1.206-2.7-2.7-2.7-2.7 1.206-2.7 2.7 1.206 2.7 2.7 2.7z"/>
</svg>
