<?xml version="1.0" standalone="no"?>
<!DOCTYPE svg PUBLIC "-//W3C//DTD SVG 20010904//EN"
 "http://www.w3.org/TR/2001/REC-SVG-20010904/DTD/svg10.dtd">
<svg version="1.0" xmlns="http://www.w3.org/2000/svg"
 width="128.000000pt" height="128.000000pt" viewBox="0 0 128.000000 128.000000"
 preserveAspectRatio="xMidYMid meet">
<metadata>
Created by potrace 1.14, written by Peter Selinger 2001-2017
</metadata>
<g transform="translate(0.000000,128.000000) scale(0.100000,-0.100000)"
fill="#000000" stroke="none">
<path d="M710 1258 c-25 -20 -25 -22 -25 -183 0 -141 -2 -165 -17 -182 -22
-24 -23 -66 -2 -88 9 -8 32 -24 53 -34 39 -19 54 -24 231 -72 63 -17 126 -37
140 -44 23 -11 64 -23 158 -45 l32 -8 0 214 0 213 -37 7 c-36 6 -176 48 -218
64 -11 5 -56 19 -100 31 -165 45 -205 62 -205 88 0 15 1 15 105 -22 39 -14
111 -37 160 -52 50 -15 131 -40 180 -56 50 -16 96 -29 103 -29 7 0 12 13 12
33 0 56 -10 76 -46 89 -48 17 -42 47 9 39 4 0 7 3 7 9 0 5 7 10 15 10 8 0 15
7 15 16 0 13 -6 15 -32 9 -18 -4 -53 -10 -78 -14 -34 -5 -46 -11 -48 -26 -2
-11 -11 -28 -19 -37 -15 -17 -17 -17 -29 0 -7 9 -14 24 -14 33 0 9 -7 22 -15
29 -13 11 -15 8 -15 -14 0 -21 -5 -26 -25 -26 -14 0 -42 7 -62 15 -20 9 -50
15 -67 15 -50 -1 -97 11 -103 26 -7 20 -34 17 -63 -8z"/>
<path d="M0 780 c0 -296 1 -302 55 -237 43 51 217 237 254 271 42 39 94 113
86 125 -3 5 -22 12 -44 16 -26 4 -42 13 -48 28 -14 30 -101 54 -215 61 l-88 5
0 -269z m157 214 c-3 -3 -12 -4 -19 -1 -8 3 -5 6 6 6 11 1 17 -2 13 -5z m178
-84 c-3 -5 -12 -7 -20 -3 -21 7 -19 13 6 13 11 0 18 -4 14 -10z"/>
<path d="M370 426 c0 -9 30 -14 35 -6 4 6 -3 10 -14 10 -12 0 -21 -2 -21 -4z"/>
<path d="M306 389 c-18 -21 -18 -22 7 -15 31 7 60 -20 36 -35 -8 -4 -21 -6
-31 -3 -9 2 -19 0 -22 -5 -4 -5 3 -12 14 -16 23 -7 27 -25 6 -25 -20 0 -165
-105 -203 -147 -40 -43 -41 -64 -7 -109 l26 -34 447 0 448 0 20 23 c43 47 45
63 16 99 -95 115 -247 179 -460 194 -83 6 -93 9 -93 26 0 18 -5 19 -42 13 -24
-3 -51 -9 -60 -11 -25 -7 -22 4 5 27 31 26 5 44 -35 23 -25 -13 -29 -13 -34 1
-8 20 -16 19 -38 -6z"/>
<path d="M240 370 c0 -5 5 -10 11 -10 5 0 7 5 4 10 -3 6 -8 10 -11 10 -2 0 -4
-4 -4 -10z"/>
</g>
</svg>
