<?xml version="1.0" encoding="utf-8"?>
<svg viewBox="248.461 176.262 28 40" xmlns="http://www.w3.org/2000/svg">
  <path d="M 262.461 176.262 C 254.761 176.262 248.461 182.562 248.461 190.262 C 248.461 200.762 262.461 216.262 262.461 216.262 C 262.461 216.262 276.461 200.762 276.461 190.262 C 276.461 182.562 270.161 176.262 262.461 176.262 Z" stroke="#fff" style="fill: rgb(238, 126, 255);"/>
  <g transform="matrix(0.386334, 0, 0, 0.726907, 246.063675, 142.886307)">
    <path d="M 125.564 59.815 C 108.082 58.591 89.294 60.634 83.294 64.383 C 77.296 60.63 58.507 58.591 41.025 59.815 C 23.34 61.06 13.697 65.17 19.439 69.007 C 24.96 72.664 76.155 82.46 82.706 82.46 C 89.257 82.46 141.592 72.676 147.114 69.007 C 152.873 65.162 143.23 61.052 125.564 59.815 Z" style="fill: rgb(248, 248, 248);" transform="matrix(0.37403325495021994, 0.002955328641642633, -0.007901000790297985, 0.9999690055847168, 11.692702663634002, -0.5678495212014687)"/>
  </g>
</svg>